<svg xmlns="http://www.w3.org/2000/svg" width="914" height="194" viewBox="0 0 914 194" font-family="JetBrains Mono, SFMono-Regular, Menlo, Consolas, monospace" font-size="14">
<rect x=".5" y=".5" width="913" height="193" rx="11.5" fill="#0a0a0a" stroke="#1f1f1f"/>
<path d="M0 12a12 12 0 0 1 12-12h890a12 12 0 0 1 12 12v26H0z" fill="#0f0f0f"/>
<path d="M0 38h914" stroke="#1f1f1f"/>
<circle cx="22" cy="19" r="4.5" fill="#2a2a2a"/>
<circle cx="38" cy="19" r="4.5" fill="#2a2a2a"/>
<circle cx="54" cy="19" r="4.5" fill="#2a2a2a"/>
<text x="457" y="23" fill="#5a5a5a" font-size="11.5" text-anchor="middle">dok health</text>
<text y="69.0" xml:space="preserve"><tspan x="45.2" fill="#6a7382" font-weight="bold" text-decoration="underline">CONTAINER</tspan><tspan x="137.6" fill="#6a7382" font-weight="bold" text-decoration="underline">PROJECT</tspan><tspan x="263.6" fill="#6a7382" font-weight="bold" text-decoration="underline">HEALTH</tspan><tspan x="356.0" fill="#6a7382" font-weight="bold" text-decoration="underline">FAILING</tspan><tspan x="431.6" fill="#6a7382" font-weight="bold" text-decoration="underline">EVERY</tspan><tspan x="490.4" fill="#6a7382" font-weight="bold" text-decoration="underline">LAST PROBE</tspan></text>
<text y="89.0" xml:space="preserve"><tspan x="20.0" fill="#e06c75">✖</tspan><tspan x="45.2" fill="#e06c75" font-weight="bold">grafana</tspan><tspan x="137.6" fill="#61afef">observability</tspan><tspan x="263.6" fill="#e06c75">unhealthy</tspan><tspan x="406.4" fill="#e06c75">7</tspan><tspan x="448.4" fill="#6a7382">30s</tspan><tspan x="490.4" fill="#e06c75">exit 1</tspan><tspan x="549.2" fill="#6a7382">curl: (7) Failed to connect to localhost</tspan><tspan x="885.2" fill="#a1a1a1">…</tspan></text>
<text y="109.0" xml:space="preserve"><tspan x="20.0" fill="#98c379">✔</tspan><tspan x="45.2" fill="#bec4d0" font-weight="bold">api</tspan><tspan x="137.6" fill="#61afef">demo-shop</tspan><tspan x="263.6" fill="#98c379">healthy</tspan><tspan x="406.4" fill="#6a7382">0</tspan><tspan x="448.4" fill="#6a7382">30s</tspan><tspan x="490.4" fill="#6a7382">{&quot;status&quot;:&quot;ok&quot;,&quot;db&quot;:&quot;up&quot;,&quot;queue&quot;:&quot;up&quot;}</tspan></text>
<text y="129.0" xml:space="preserve"><tspan x="20.0" fill="#98c379">✔</tspan><tspan x="45.2" fill="#bec4d0" font-weight="bold">postgres</tspan><tspan x="137.6" fill="#61afef">demo-shop</tspan><tspan x="263.6" fill="#98c379">healthy</tspan><tspan x="406.4" fill="#6a7382">0</tspan><tspan x="448.4" fill="#6a7382">30s</tspan><tspan x="490.4" fill="#6a7382">accepting connections</tspan></text>
<text y="169.0" xml:space="preserve"><tspan x="20.0" fill="#98c379">2 healthy</tspan><tspan x="95.6" fill="#6a7382"> · </tspan><tspan x="120.8" fill="#e06c75">1 unhealthy</tspan><tspan x="213.2" fill="#6a7382"> · </tspan><tspan x="238.4" fill="#6a7382">2 without a healthcheck</tspan></text>
</svg>
